<?xml version="1.0" encoding="utf-8"?>
<!-- Generator: Adobe Illustrator 15.0.2, SVG Export Plug-In . SVG Version: 6.00 Build 0)  -->
<!DOCTYPE svg PUBLIC "-//W3C//DTD SVG 1.1//EN" "http://www.w3.org/Graphics/SVG/1.1/DTD/svg11.dtd">
<svg version="1.1" id="Capa_1" xmlns="http://www.w3.org/2000/svg" xmlns:xlink="http://www.w3.org/1999/xlink" x="0px" y="0px"
	 width="600px" height="600px" viewBox="100 0 600 600" enable-background="new 100 0 600 600" xml:space="preserve">
<g>
	<path fill="#EF6C53" d="M371.775,215.156c-7.556-26.55-19.737-34.406-38.694-34.406c-2.05,0-4.1,0.281-6.081,0.844
		c-8.2,2.306-14.719,9.169-18.362,19.337c-3.7,10.332-3.957,21.082-0.731,33.375c5.763,21.881,21.325,37.769,37.025,37.769
		c2.062,0,4.1-0.281,6.069-0.838C368.15,266.406,378.894,240.212,371.775,215.156z M400,0C234.312,0,100,134.312,100,300
		c0,165.693,134.312,300,300,300c165.7,0,300-134.307,300-300C700,134.312,565.7,0,400,0z M382.712,428.807
		c-18.837,9.156-39.137,10.144-46.987,10.144c-1.488,0-2.356-0.038-2.488-0.038c0,0-0.562,0.013-1.525,0.013
		c-12.231,0-73.206-2.812-73.206-58.35c0-54.569,66.394-58.825,86.744-58.825l0.538,0.006c-11.756-15.681-9.312-31.524-9.312-31.524
		c-1.038,0.075-2.538,0.144-4.394,0.144c-7.668,0-22.438-1.225-35.144-9.425c-15.538-10-23.413-27.025-23.413-50.613
		c0-66.575,72.707-69.275,73.425-69.288h72.618v1.575c0,8.131-14.574,9.675-24.537,11.038c-3.356,0.462-10.131,1.175-12.05,2.163
		c18.381,9.8,21.362,25.244,21.362,48.256c0,26.175-10.256,40.025-21.131,49.756c-6.712,6.013-12.025,10.763-12.025,17.075
		c0,6.2,7.275,12.587,15.688,19.968c13.794,12.119,32.688,28.707,32.688,56.575C419.568,396.3,407.162,416.938,382.712,428.807z
		 M541.494,299.719h-47.363v47.369h-30.006v-47.369h-47.362v-30h47.362V222.35h30.006v47.369h47.363V299.719z M344.456,335.987
		c-1.625,0-3.256,0.062-4.894,0.163c-13.894,1.024-26.675,6.219-35.975,14.649c-9.181,8.319-13.869,18.769-13.194,29.425
		c1.394,22.182,25.244,35.219,54.213,33.106c28.525-2.075,47.525-18.462,46.131-40.675
		C389.419,351.744,371.263,335.987,344.456,335.987z"/>
</g>
</svg>
