<?xml version="1.0" encoding="utf-8"?>
<!-- Generator: Adobe Illustrator 15.0.2, SVG Export Plug-In . SVG Version: 6.00 Build 0)  -->
<!DOCTYPE svg PUBLIC "-//W3C//DTD SVG 1.1//EN" "http://www.w3.org/Graphics/SVG/1.1/DTD/svg11.dtd">
<svg version="1.1" id="Capa_1" xmlns="http://www.w3.org/2000/svg" xmlns:xlink="http://www.w3.org/1999/xlink" x="0px" y="0px"
	 width="49.652px" height="49.652px" viewBox="0 0 49.652 49.652" enable-background="new 0 0 49.652 49.652" xml:space="preserve">
<g>
	<g>
		<g>
			<path fill="#F7941E" d="M24.825,29.796c2.739,0,4.972-2.229,4.972-4.97c0-1.082-0.354-2.081-0.938-2.896
				c-0.903-1.254-2.371-2.073-4.029-2.073c-1.659,0-3.126,0.818-4.031,2.07c-0.588,0.816-0.938,1.815-0.938,2.897
				C19.854,27.566,22.085,29.796,24.825,29.796z"/>
			<polygon fill="#F7941E" points="35.678,18.746 35.678,14.58 35.678,13.96 35.055,13.962 30.891,13.975 30.907,18.762 			"/>
			<path fill="#F7941E" d="M24.826,0C11.137,0,0,11.137,0,24.826c0,13.689,11.139,24.826,24.826,24.826
				c13.688,0,24.826-11.138,24.826-24.826C49.652,11.138,38.516,0,24.826,0z M38.945,21.929v11.56c0,3.011-2.448,5.458-5.457,5.458
				H16.164c-3.01,0-5.457-2.447-5.457-5.458v-11.56v-5.766c0-3.01,2.447-5.457,5.457-5.457h17.323c3.01,0,5.458,2.447,5.458,5.457
				V21.929z"/>
			<path fill="#F7941E" d="M32.549,24.826c0,4.257-3.464,7.723-7.723,7.723s-7.722-3.466-7.722-7.723
				c0-1.024,0.204-2.003,0.566-2.896h-4.215v11.56c0,1.494,1.213,2.704,2.706,2.704h17.323c1.491,0,2.706-1.21,2.706-2.704V21.93
				h-4.217C32.342,22.823,32.549,23.802,32.549,24.826z"/>
		</g>
	</g>
</g>
</svg>
