<?xml version="1.0" encoding="utf-8"?>
<!-- Generator: Adobe Illustrator 15.0.2, SVG Export Plug-In . SVG Version: 6.00 Build 0)  -->
<!DOCTYPE svg PUBLIC "-//W3C//DTD SVG 1.1//EN" "http://www.w3.org/Graphics/SVG/1.1/DTD/svg11.dtd">
<svg version="1.1" id="Capa_1" xmlns="http://www.w3.org/2000/svg" xmlns:xlink="http://www.w3.org/1999/xlink" x="0px" y="0px"
	 width="49.652px" height="49.652px" viewBox="0 0 49.652 49.652" enable-background="new 0 0 49.652 49.652" xml:space="preserve">
<circle fill="#1E88C9" cx="24.826" cy="24.826" r="24.825"/>
<g>
	<path fill="#FFFFFF" d="M32.119,19.576c-3.277,0-4.742,1.802-5.562,3.068v-2.629h-6.175c0.08,1.74,0,18.579,0,18.579h6.175V28.215
		c0-0.555,0.037-1.111,0.201-1.508c0.447-1.111,1.463-2.261,3.172-2.261c2.232,0,3.125,1.704,3.125,4.202v9.94h6.176h0.002V27.934
		C39.228,22.233,36.181,19.576,32.119,19.576z M26.552,22.709h-0.039c0.014-0.021,0.031-0.042,0.039-0.063V22.709z"/>
	<rect x="10.785" y="20.015" fill="#FFFFFF" width="6.175" height="18.579"/>
	<path fill="#FFFFFF" d="M13.913,11.058c-2.109,0-3.493,1.385-3.493,3.209c0,1.783,1.341,3.209,3.411,3.209h0.041
		c2.153,0,3.494-1.427,3.494-3.209C17.326,12.445,16.027,11.058,13.913,11.058z"/>
</g>
</svg>
